<svg xmlns="http://www.w3.org/2000/svg" xmlns:xlink="http://www.w3.org/1999/xlink" width="500" zoomAndPan="magnify" viewBox="0 0 375 374.999991" height="500" preserveAspectRatio="xMidYMid meet" version="1.0"><defs><g/><clipPath id="6c21d8e5f3"><path d="M 0 0 L 375 0 L 375 375 L 0 375 Z M 0 0 " clip-rule="nonzero"/></clipPath><clipPath id="2c8f00e4df"><path d="M 187.5 0 C 83.945312 0 0 83.945312 0 187.5 C 0 291.054688 83.945312 375 187.5 375 C 291.054688 375 375 291.054688 375 187.5 C 375 83.945312 291.054688 0 187.5 0 Z M 187.5 0 " clip-rule="nonzero"/></clipPath><clipPath id="e405becd3d"><path d="M 0 0 L 375 0 L 375 375 L 0 375 Z M 0 0 " clip-rule="nonzero"/></clipPath><clipPath id="b80b783523"><path d="M 187.5 0 C 83.945312 0 0 83.945312 0 187.5 C 0 291.054688 83.945312 375 187.5 375 C 291.054688 375 375 291.054688 375 187.5 C 375 83.945312 291.054688 0 187.5 0 Z M 187.5 0 " clip-rule="nonzero"/></clipPath><clipPath id="a1df068d6a"><rect x="0" width="375" y="0" height="375"/></clipPath><clipPath id="f02882d212"><rect x="0" width="375" y="0" height="375"/></clipPath></defs><g transform="matrix(1, 0, 0, 1, 0, 0)"><g clip-path="url(#f02882d212)"><g clip-path="url(#6c21d8e5f3)"><g clip-path="url(#2c8f00e4df)"><g transform="matrix(1, 0, 0, 1, 0, 0)"><g clip-path="url(#a1df068d6a)"><g clip-path="url(#e405becd3d)"><g clip-path="url(#b80b783523)"><rect x="-136.5" width="648" fill="#2563eb" y="-136.499997" height="647.999984" fill-opacity="1"/></g></g></g></g></g></g><g fill="#ffffff" fill-opacity="1"><g transform="translate(84.245778, 298.338387)"><g><path d="M 136.0625 -155 C 135.46875 -162.332031 132.726562 -168.050781 127.84375 -172.15625 C 122.96875 -176.269531 115.578125 -178.328125 105.671875 -178.328125 C 99.359375 -178.328125 94.203125 -177.570312 90.203125 -176.0625 C 86.210938 -174.5625 83.257812 -172.523438 81.34375 -169.953125 C 79.4375 -167.390625 78.445312 -164.457031 78.375 -161.15625 C 78.226562 -158.4375 78.722656 -155.992188 79.859375 -153.828125 C 80.992188 -151.671875 82.804688 -149.726562 85.296875 -148 C 87.796875 -146.28125 90.988281 -144.722656 94.875 -143.328125 C 98.769531 -141.929688 103.398438 -140.679688 108.765625 -139.578125 L 127.25 -135.625 C 139.726562 -132.976562 150.40625 -129.488281 159.28125 -125.15625 C 168.164062 -120.832031 175.429688 -115.75 181.078125 -109.90625 C 186.734375 -104.070312 190.898438 -97.523438 193.578125 -90.265625 C 196.253906 -83.003906 197.628906 -75.078125 197.703125 -66.484375 C 197.628906 -51.660156 193.921875 -39.113281 186.578125 -28.84375 C 179.242188 -18.570312 168.769531 -10.753906 155.15625 -5.390625 C 141.539062 -0.0351562 125.191406 2.640625 106.109375 2.640625 C 86.515625 2.640625 69.4375 -0.253906 54.875 -6.046875 C 40.3125 -11.847656 29.007812 -20.785156 20.96875 -32.859375 C 12.9375 -44.929688 8.882812 -60.394531 8.8125 -79.25 L 66.921875 -79.25 C 67.296875 -72.351562 69.019531 -66.554688 72.09375 -61.859375 C 75.175781 -57.160156 79.523438 -53.597656 85.140625 -51.171875 C 90.753906 -48.753906 97.453125 -47.546875 105.234375 -47.546875 C 111.765625 -47.546875 117.234375 -48.351562 121.640625 -49.96875 C 126.046875 -51.582031 129.382812 -53.820312 131.65625 -56.6875 C 133.925781 -59.550781 135.097656 -62.816406 135.171875 -66.484375 C 135.097656 -69.929688 133.976562 -72.957031 131.8125 -75.5625 C 129.65625 -78.175781 126.117188 -80.523438 121.203125 -82.609375 C 116.285156 -84.703125 109.640625 -86.664062 101.265625 -88.5 L 78.8125 -93.34375 C 58.851562 -97.675781 43.128906 -104.921875 31.640625 -115.078125 C 20.160156 -125.242188 14.457031 -139.132812 14.53125 -156.75 C 14.457031 -171.0625 18.289062 -183.59375 26.03125 -194.34375 C 33.769531 -205.09375 44.519531 -213.476562 58.28125 -219.5 C 72.039062 -225.519531 87.835938 -228.53125 105.671875 -228.53125 C 123.867188 -228.53125 139.609375 -225.484375 152.890625 -219.390625 C 166.179688 -213.296875 176.441406 -204.726562 183.671875 -193.6875 C 190.898438 -182.644531 194.550781 -169.75 194.625 -155 Z M 136.0625 -155 "/></g></g></g></g></g></svg>